# xmcd CD database file
#
# Track frame offsets:
#	187
#	15900
#	32702
#	48730
#	66100
#	82475
#	97287
#	114247
#
# Disc length: 1681 seconds
#
# Revision: 1
# Processed by: cddbd v1.5.2PL0 Copyright (c) Steve Scherf et al.
# Submitted via: CDex 1.51
#
DISCID=69068f08
DTITLE=Bobby Jaspar - Bobby Jaspar With Henri Renaud Quintet
DYEAR=1953
DGENRE=Jazz
TTITLE0=Jeeper's Creepers
TTITLE1=La Fin D'Un Roman D'Amour (The End Of A Love Affair)
TTITLE2=Struttin' With Some Barbecue
TTITLE3=Bernie's Tune
TTITLE4=Tout Bleu, Tout Bleu
TTITLE5=Strike Up The Band
TTITLE6=Jimmy's Dream
TTITLE7=I Only Have Eyes For You
EXTD=YEAR: 1953
EXTT0=
EXTT1=
EXTT2=
EXTT3=
EXTT4=
EXTT5=
EXTT6=
EXTT7=
PLAYORDER=
